<svg xmlns="http://www.w3.org/2000/svg" viewBox="0 0 24 24" fill="none" stroke="currentColor" stroke-width="2" stroke-linecap="round" stroke-linejoin="round">
  <defs>
    <linearGradient id="grad1" x1="0%" y1="0%" x2="100%" y2="100%">
      <stop offset="0%" style="stop-color:#6366f1;stop-opacity:1" />
      <stop offset="100%" style="stop-color:#4f46e5;stop-opacity:1" />
    </linearGradient>
  </defs>
  <path d="M12 22a7 7 0 0 0 7-7c0-2-1-3.9-3-5.5s-3.5-4-4-6.5c-.5 2.5-2 4.9-4 6.5C6 11.1 5 13 5 15a7 7 0 0 0 7 7z" fill="url(#grad1)" stroke="white" stroke-width="1"/>
  <path d="M12 18.5a3.5 3.5 0 0 0 3.5-3.5c0-1.2-.7-2.3-1.8-3.2s-1.4-1.6-1.7-2.8c-.3 1.2-.6 1.9-1.7 2.8-1.1.9-1.8 2-1.8 3.2a3.5 3.5 0 0 0 3.5 3.5z" fill="white" opacity="0.3"/>
</svg>
